# xmcd CD database file
#
# Track frame offsets:
#	182
#	23295
#	50282
#	70035
#	91217
#	114915
#	138577
#	160982
#	181920
#	195092
#
# Disc length: 2785 seconds
#
# Revision: 1
# Processed by: cddbd v1.5.2PL0 Copyright (c) Steve Scherf et al.
# Submitted via: CDex 1.51
#
DISCID=6e0adf0a
DTITLE=Stanley Beamish Blues Band - Te Vuel To Move
DYEAR=1992
DGENRE=Rock
TTITLE0=Average White Blues Boy
TTITLE1=You Are The Only One
TTITLE2=Mother
TTITLE3=Back To Lousiana
TTITLE4=Mississipi Long Walk
TTITLE5=Mojo Working
TTITLE6=King Of The New York Streets
TTITLE7=When The Blues Comes To Town
TTITLE8=No More Girls
TTITLE9=Can't Be Satisfied
EXTD=YEAR: 1992
EXTT0=
EXTT1=
EXTT2=
EXTT3=
EXTT4=
EXTT5=
EXTT6=
EXTT7=
EXTT8=
EXTT9=
PLAYORDER=
